<?xml version="1.0" standalone="no"?>
<!DOCTYPE svg PUBLIC "-//W3C//DTD SVG 20010904//EN"
 "http://www.w3.org/TR/2001/REC-SVG-20010904/DTD/svg10.dtd">
<svg version="1.0" xmlns="http://www.w3.org/2000/svg"
 width="3685.000000pt" height="1496.000000pt" viewBox="0 0 3685.000000 1496.000000"
 preserveAspectRatio="xMidYMid meet">

<g transform="translate(0.000000,1496.000000) scale(0.100000,-0.100000)"
fill="#000000" stroke="none">
<path d="M5452 12458 c-1 -10 -9 -18 -17 -18 -12 0 -15 -14 -15 -64 0 -55 -3
-64 -20 -69 -17 -4 -20 -14 -20 -59 0 -30 -6 -76 -14 -103 -8 -26 -18 -84 -21
-129 -4 -44 -13 -106 -21 -136 -7 -30 -18 -129 -24 -220 -32 -513 -33 -554
-22 -675 7 -66 12 -200 12 -299 l0 -178 -23 6 c-21 5 -26 0 -37 -34 -11 -35
-11 -43 9 -80 21 -42 26 -99 11 -135 -5 -11 -9 -14 -9 -7 -1 6 -8 12 -16 12
-16 0 -20 46 -15 170 1 55 -21 122 -35 101 -3 -6 -3 -11 1 -11 3 0 1 -7 -6
-15 -7 -9 -14 -46 -15 -83 -4 -133 0 -122 -47 -121 -36 0 -39 2 -20 9 12 5 22
16 22 25 0 8 5 15 10 15 6 0 10 20 10 45 l0 45 -40 0 c-29 0 -40 -4 -40 -15 0
-8 -7 -15 -15 -15 -8 0 -15 -7 -15 -15 0 -9 -7 -18 -17 -22 -14 -5 -13 -8 5
-14 15 -6 22 -17 22 -34 0 -20 -5 -25 -25 -25 -15 0 -25 -6 -25 -14 0 -8 -16
-28 -35 -45 -33 -28 -35 -34 -35 -91 0 -47 4 -64 20 -80 21 -21 29 -110 10
-110 -5 0 -10 7 -10 15 0 8 -4 15 -8 15 -17 0 -33 70 -26 119 3 28 3 58 -1 68
-14 31 -23 -31 -24 -166 -1 -103 2 -126 15 -135 9 -7 16 -23 16 -37 -3 -181 0
-247 14 -273 8 -18 14 -59 14 -105 0 -103 10 -181 24 -181 7 0 11 -36 12 -107
0 -115 17 -289 37 -388 6 -33 12 -136 14 -230 1 -124 6 -179 17 -205 11 -28
15 -84 16 -250 1 -230 -14 -282 -23 -80 -3 63 -8 123 -12 133 -7 17 -8 17 -21
0 -7 -10 -14 -33 -14 -50 0 -29 -3 -33 -25 -33 -30 0 -46 -31 -38 -73 3 -15 2
-44 -3 -64 -8 -35 -9 -31 -15 42 -13 146 -20 186 -33 175 -7 -5 -13 -32 -13
-61 -1 -28 -4 -53 -7 -56 -3 -3 -42 -6 -88 -7 -67 -1 -85 2 -97 17 -9 9 -28
17 -43 17 -16 0 -28 5 -28 10 0 19 -29 10 -35 -10 -7 -24 12 -53 28 -43 6 4 8
-2 4 -18 -4 -13 -7 -27 -7 -31 0 -16 -19 -7 -25 12 -8 25 -45 26 -52 2 -2 -10
-13 -23 -23 -30 -16 -10 -21 -9 -29 6 -12 24 4 62 28 62 14 0 21 9 25 36 4 19
9 41 12 48 7 18 -27 30 -38 14 -4 -7 -8 -23 -8 -35 0 -24 -14 -31 -25 -13 -3
6 -15 10 -27 10 -14 0 -18 -5 -14 -16 19 -50 19 -67 -4 -84 -32 -24 -20 -60
21 -60 24 0 29 -4 29 -25 0 -14 8 -29 20 -35 13 -7 20 -21 20 -42 0 -34 36
-118 51 -118 5 0 9 -16 9 -36 0 -21 4 -33 10 -29 6 3 10 1 10 -4 0 -6 -4 -11
-10 -11 -17 0 -11 -29 10 -50 11 -11 20 -32 20 -46 0 -14 5 -35 12 -47 40 -72
61 -511 33 -691 -16 -104 -47 -218 -71 -265 -8 -14 -14 -32 -14 -38 0 -13 -50
-128 -73 -170 -47 -84 -102 -164 -136 -201 -23 -24 -41 -48 -41 -53 0 -9 -65
-81 -172 -191 -32 -33 -65 -58 -77 -58 -14 0 -19 -5 -15 -15 4 -8 15 -15 25
-15 11 0 22 7 25 15 4 8 17 15 31 15 33 0 27 -30 -10 -48 -31 -15 -35 -36 -9
-51 13 -7 14 -13 5 -22 -13 -13 -33 -4 -33 16 0 7 -10 15 -22 17 -14 2 -23 10
-23 20 0 9 -4 20 -9 25 -5 4 -6 -17 -2 -48 6 -51 5 -57 -12 -61 -11 -3 -26 -2
-33 3 -11 7 -9 10 8 15 12 3 24 12 27 20 4 10 -4 14 -29 14 -23 0 -35 -5 -35
-14 0 -8 -15 -17 -35 -20 -20 -4 -33 -11 -30 -17 9 -13 -57 -39 -82 -33 -13 4
-22 -1 -29 -17 -8 -18 -19 -22 -66 -24 -30 -2 -71 -10 -89 -18 -66 -31 -117
-45 -128 -34 -6 6 -21 4 -42 -7 -18 -9 -51 -16 -75 -16 -24 0 -45 -4 -48 -8
-5 -9 -232 -8 -361 2 -137 11 -356 67 -431 111 -24 14 -51 25 -61 26 -10 0
-36 11 -58 24 -22 13 -51 30 -65 37 -29 15 -79 48 -100 66 -8 6 -37 29 -65 50
-27 21 -77 69 -110 105 -32 37 -65 67 -72 67 -7 0 -13 5 -13 12 0 7 -9 21 -20
33 -31 30 -85 105 -105 145 -9 19 -23 42 -30 50 -29 34 -113 210 -139 290 -49
154 -56 177 -56 197 0 10 -4 23 -10 29 -9 9 -34 269 -26 282 2 4 7 63 10 132
4 69 13 145 21 170 7 25 23 74 34 110 25 77 26 100 6 100 -8 0 -15 -4 -15 -10
0 -5 -11 -12 -25 -16 -14 -3 -25 -12 -25 -20 0 -7 -6 -17 -13 -21 -16 -10 -62
-82 -71 -111 -4 -13 -19 -27 -32 -32 -16 -7 -24 -17 -24 -34 0 -14 -13 -41
-30 -59 -16 -19 -30 -38 -30 -42 0 -4 -9 -19 -20 -33 -40 -52 -90 -135 -96
-158 -3 -13 -16 -34 -27 -46 -12 -13 -28 -36 -34 -51 -7 -15 -17 -27 -23 -27
-5 0 -10 -8 -10 -17 0 -10 -7 -29 -15 -43 -63 -111 -137 -276 -176 -395 -29
-86 -45 -126 -75 -188 -8 -16 -14 -39 -14 -51 0 -12 -9 -48 -21 -81 -33 -94
-70 -235 -78 -295 -4 -30 -12 -64 -18 -75 -6 -11 -14 -47 -18 -80 -4 -33 -13
-85 -21 -115 -8 -30 -14 -79 -14 -110 0 -30 -7 -86 -15 -125 -21 -100 -21
-802 0 -890 8 -33 15 -88 15 -122 0 -34 6 -95 14 -135 8 -40 19 -98 25 -128
24 -131 54 -261 72 -315 6 -16 15 -48 20 -70 5 -22 16 -57 24 -78 8 -20 15
-48 15 -61 0 -13 7 -29 15 -36 8 -7 15 -20 15 -29 1 -9 9 -34 20 -56 11 -22
19 -44 20 -50 1 -25 100 -262 147 -350 12 -22 33 -65 47 -95 15 -30 42 -82 61
-115 20 -33 40 -70 45 -83 6 -13 21 -38 35 -56 14 -18 25 -38 25 -44 0 -6 10
-23 23 -39 12 -15 27 -35 32 -44 51 -83 158 -231 288 -402 71 -93 273 -313
427 -465 127 -126 291 -256 510 -407 19 -13 46 -33 60 -44 14 -11 33 -21 42
-21 15 0 63 -27 140 -81 15 -11 31 -19 36 -19 5 0 19 -11 32 -25 13 -14 30
-25 38 -25 9 0 23 -6 31 -13 9 -7 41 -24 71 -37 30 -13 62 -30 71 -37 8 -7 21
-13 28 -13 7 0 25 -6 39 -14 33 -16 88 -36 122 -43 14 -3 33 -13 43 -21 19
-17 120 -55 202 -77 28 -7 63 -18 78 -24 16 -6 41 -11 56 -11 15 0 36 -7 47
-15 10 -8 32 -15 47 -15 15 0 44 -7 64 -15 19 -8 48 -15 64 -15 16 0 46 -6 66
-14 21 -8 94 -24 163 -35 69 -12 161 -28 205 -36 261 -48 1077 -51 1320 -5 28
5 86 17 130 26 44 8 103 20 130 25 28 6 64 17 82 25 17 7 39 14 48 14 26 0
155 30 195 45 19 8 69 23 110 35 89 25 142 45 192 71 20 10 44 19 52 19 8 0
49 16 92 35 42 19 81 35 86 35 16 0 220 102 265 132 23 15 48 28 55 28 7 0 21
9 31 20 9 11 24 20 33 20 8 0 35 16 58 35 24 19 50 35 60 35 9 0 16 5 16 11 0
5 15 16 33 24 28 12 95 64 153 118 39 37 119 97 129 97 5 0 42 29 80 65 39 36
80 68 93 71 12 3 22 9 22 13 0 11 118 131 129 131 6 0 15 8 20 18 5 9 38 46
73 82 35 36 78 83 95 105 18 22 51 64 75 93 23 28 45 52 50 52 4 0 8 6 8 14 0
8 7 16 15 20 8 3 15 12 15 20 0 8 9 18 20 21 11 3 20 9 20 13 0 4 16 25 35 47
19 22 35 45 35 51 0 7 7 14 15 18 8 3 15 12 15 20 0 8 14 30 30 48 17 18 29
40 27 49 -3 9 4 24 14 33 11 9 19 22 19 28 0 7 9 19 20 26 11 7 20 18 20 24 0
7 9 21 20 33 25 25 70 93 70 105 0 5 13 24 29 42 15 18 31 43 35 56 4 12 12
19 18 16 7 -5 9 2 4 19 -5 20 -2 30 14 39 29 18 25 52 -7 68 l-28 13 25 6 c35
9 38 38 6 51 -14 5 -26 17 -26 26 0 13 -6 15 -30 11 -33 -7 -53 11 -21 20 12
3 21 12 21 20 0 21 34 11 38 -11 5 -25 26 -46 46 -46 8 0 16 -10 18 -22 3 -20
6 -18 21 16 10 22 15 46 12 55 -2 9 0 23 5 30 7 12 12 11 28 -9 l19 -23 5 26
c6 31 -4 41 -31 32 -15 -4 -19 1 -24 31 -8 48 -3 54 39 54 32 0 34 2 28 25 -4
15 -1 32 6 40 11 13 8 15 -18 15 -24 0 -29 -4 -26 -18 6 -22 -6 -38 -33 -46
-17 -6 -23 -3 -23 9 0 26 -29 30 -51 6 -11 -11 -26 -21 -34 -21 -10 0 -14 -11
-12 -37 2 -34 -1 -38 -23 -41 l-25 -4 25 24 25 23 -24 3 c-13 2 -40 -4 -60
-13 -68 -33 -96 -44 -124 -51 -15 -3 -30 -10 -32 -15 -8 -12 -150 -80 -188
-89 -58 -15 -128 -41 -208 -79 -25 -11 -59 -21 -75 -21 -16 0 -56 -14 -89 -30
-33 -16 -72 -30 -86 -30 -15 0 -32 -6 -38 -14 -6 -7 -32 -16 -57 -20 -25 -3
-68 -13 -95 -21 -118 -36 -146 -44 -184 -51 -22 -3 -45 -10 -50 -15 -6 -4 -39
-12 -75 -18 -110 -17 -174 -32 -203 -47 -34 -17 -79 -18 -94 -3 -13 13 -56 2
-81 -21 -11 -10 -37 -19 -58 -20 -51 -2 -132 1 -119 5 6 1 29 8 52 15 54 16
46 30 -18 30 -38 0 -49 -3 -49 -16 0 -11 -5 -14 -16 -10 -9 3 -50 7 -92 8
l-77 2 85 5 c84 6 85 6 88 34 3 25 1 27 -32 27 -34 0 -36 2 -36 35 0 28 -4 35
-20 35 -16 0 -20 7 -20 35 0 24 -5 35 -15 35 -10 0 -15 11 -15 35 0 24 -5 35
-15 35 -12 0 -15 16 -15 81 0 72 -2 81 -20 86 -11 3 -20 12 -20 19 0 10 -14
14 -50 14 -43 0 -50 3 -50 20 0 13 -7 20 -20 20 -13 0 -20 7 -20 19 0 10 9 21
20 24 12 3 20 14 20 27 0 19 -2 20 -15 10 -25 -21 -58 16 -52 57 5 30 4 33
-21 33 -20 0 -23 3 -13 9 10 6 -4 11 -43 16 -38 5 -61 4 -69 -4 -6 -6 -26 -11
-44 -11 -27 0 -33 4 -31 18 4 23 18 32 51 32 24 0 27 4 27 34 0 27 -4 34 -22
38 -36 6 -55 -1 -61 -23 -5 -19 -32 -25 -55 -11 -16 10 21 52 46 52 9 1 28 7
42 15 23 13 19 14 -60 15 -55 0 -90 -4 -98 -12 -9 -9 -82 -15 -245 -19 -128
-4 -250 -12 -272 -18 -58 -15 -357 -13 -520 4 -77 8 -178 16 -225 19 -47 2
-125 8 -174 12 -148 12 -76 25 189 34 134 4 248 11 253 14 6 3 54 11 108 16
54 6 129 20 167 31 38 11 80 18 92 15 16 -4 33 2 54 19 26 23 36 25 79 19 42
-5 53 -3 71 15 14 14 34 21 59 21 21 0 47 6 58 14 11 8 38 18 60 21 21 4 46
14 55 22 10 8 33 13 60 11 37 -3 44 0 43 15 -1 12 6 17 26 17 39 0 60 9 60 27
0 10 12 13 46 12 34 -2 50 2 59 14 7 9 25 17 40 17 18 0 28 6 32 20 4 14 14
20 33 20 15 0 39 9 53 20 14 11 34 20 45 20 11 0 25 7 32 15 7 8 20 15 29 15
27 0 111 44 111 59 0 10 8 12 31 7 25 -5 32 -2 36 14 4 14 14 20 34 20 18 0
32 7 39 20 6 11 19 20 30 20 10 0 25 7 34 15 8 8 21 15 29 15 8 0 22 9 32 20
10 11 24 20 32 20 7 0 16 7 19 15 4 8 14 15 24 15 10 0 25 7 34 15 8 8 25 20
38 25 36 17 70 37 77 47 3 5 17 14 31 21 61 31 80 44 80 52 0 4 14 13 30 19
17 5 30 15 30 20 0 6 4 11 9 11 14 0 91 52 91 62 0 4 7 8 15 8 9 0 18 7 21 15
4 8 12 15 20 15 7 0 31 18 53 40 22 22 43 40 46 40 10 0 91 63 143 110 12 11
24 20 27 20 3 0 19 14 35 30 16 17 56 52 87 77 74 60 314 301 396 396 79 93
76 89 115 134 18 21 48 56 67 78 19 22 35 43 35 46 0 3 14 21 31 40 17 19 46
57 64 84 19 28 57 82 84 120 28 39 55 79 60 90 5 12 16 27 25 34 9 7 16 18 16
24 0 6 6 18 14 26 7 9 25 36 38 61 14 25 35 61 46 80 12 19 26 46 32 59 6 13
24 44 40 68 17 24 30 49 30 56 1 7 12 30 25 52 14 22 30 51 36 65 6 14 26 57
44 95 57 120 64 144 55 202 -5 29 -11 57 -14 61 -3 5 -10 40 -16 77 -6 38 -17
83 -25 100 -7 16 -23 62 -35 100 -30 94 -78 205 -89 205 -8 0 -41 -43 -41 -54
0 -6 -11 -33 -25 -61 -13 -27 -25 -56 -25 -63 0 -7 -4 -20 -9 -30 -5 -9 -19
-39 -31 -67 -12 -27 -41 -90 -65 -140 -24 -49 -50 -106 -59 -125 -9 -19 -20
-42 -25 -50 -25 -38 -121 -212 -121 -219 0 -4 -9 -18 -20 -31 -11 -13 -20 -29
-20 -37 0 -7 -6 -13 -13 -13 -7 0 -18 -15 -25 -32 -6 -18 -23 -46 -37 -62 -14
-16 -25 -33 -25 -37 0 -9 -53 -84 -90 -128 -11 -13 -20 -30 -20 -38 0 -7 -7
-13 -15 -13 -8 0 -15 -7 -15 -15 0 -8 -9 -25 -20 -37 -12 -13 -27 -30 -35 -39
-8 -9 -15 -20 -15 -25 0 -6 -13 -20 -30 -32 -16 -13 -30 -29 -30 -37 0 -26
-21 -27 -55 -1 -38 29 -45 31 -45 14 1 -18 36 -58 52 -58 8 -1 7 -4 -4 -11
-10 -5 -18 -16 -18 -24 0 -8 -6 -18 -13 -22 -7 -4 -32 -32 -56 -60 -41 -49
-61 -59 -61 -29 0 7 9 23 20 36 42 49 -7 69 -51 21 -35 -39 -69 -42 -69 -6 0
14 9 30 20 37 11 7 20 16 20 19 0 12 -77 48 -117 54 -21 4 -50 11 -66 17 -20
8 -31 7 -42 -2 -8 -7 -15 -9 -15 -4 0 21 -68 54 -109 54 -34 0 -44 4 -48 20
-4 16 -14 20 -44 20 -32 0 -39 3 -39 20 0 17 -7 20 -50 20 -39 0 -53 -4 -62
-20 -7 -11 -23 -20 -35 -20 -18 0 -23 6 -23 25 0 29 -25 45 -70 45 -23 0 -33
5 -37 19 -3 11 -12 22 -22 24 -9 3 13 6 49 7 l65 3 -62 10 c-51 8 -63 13 -63
28 0 12 -7 19 -20 19 -11 0 -20 7 -20 15 0 11 -12 15 -50 15 -27 0 -50 4 -50
9 0 12 -30 8 -63 -9 -27 -13 -30 -12 -53 18 -19 24 -34 32 -57 32 -33 1 -67
20 -67 38 0 16 -37 25 -57 13 -10 -5 -27 -19 -37 -30 -11 -12 -27 -21 -37 -21
-10 0 -23 -8 -28 -19 -6 -10 -25 -24 -43 -32 -18 -7 -43 -23 -55 -36 -12 -13
-29 -23 -38 -23 -8 0 -15 -4 -15 -9 0 -8 -142 -103 -183 -122 -12 -5 -38 -20
-59 -32 -89 -54 -138 -81 -203 -112 -38 -19 -77 -39 -85 -44 -23 -16 -203 -98
-231 -105 -13 -4 -33 -11 -44 -16 -77 -34 -119 -50 -129 -50 -6 -1 -29 -9 -51
-20 -22 -11 -48 -19 -57 -20 -9 0 -23 -6 -30 -13 -7 -8 -35 -16 -62 -19 -27
-3 -51 -10 -55 -16 -17 -27 -87 -23 -132 9 -20 15 -69 4 -69 -16 0 -9 13 -15
35 -17 69 -6 40 -23 -48 -28 -50 -3 -91 -11 -95 -17 -10 -15 -108 -28 -116
-15 -3 5 8 12 25 16 22 4 30 11 27 23 -2 10 -12 18 -23 19 -11 0 -39 4 -63 8
l-44 8 27 14 c18 9 46 12 84 9 31 -3 50 -2 44 1 -7 3 -13 14 -13 25 0 14 -7
19 -30 19 -19 0 -30 5 -30 14 0 8 -10 16 -22 18 -14 2 -24 12 -28 28 -5 19
-14 26 -44 31 -21 3 -41 11 -45 16 -3 6 -25 13 -49 16 -24 3 -51 12 -61 21
-10 9 -30 16 -44 16 -23 0 -27 4 -27 30 0 22 -4 28 -15 24 -16 -6 -18 2 -15
48 1 17 -5 30 -18 37 -14 7 -18 17 -15 31 5 19 6 19 18 4 7 -10 19 -15 29 -11
17 7 22 27 6 27 -11 0 -60 51 -60 62 0 12 38 9 42 -3 6 -19 37 2 33 23 -4 18
-1 20 26 14 27 -5 29 -4 19 14 -9 17 -7 22 12 29 13 5 30 5 40 0 24 -13 34
-11 20 3 -16 16 -15 28 3 28 8 0 23 9 32 20 10 11 25 20 35 20 10 0 18 7 18
15 0 8 7 15 15 15 9 0 18 6 21 14 3 8 19 19 35 25 16 5 29 15 29 20 0 6 6 11
14 11 7 0 16 9 19 20 3 12 14 20 26 20 12 0 21 5 21 10 0 6 12 16 28 23 15 6
38 24 52 39 13 16 30 28 36 28 6 0 14 9 17 20 3 11 12 20 21 20 9 0 16 7 16
15 0 12 4 14 19 5 21 -10 40 3 21 15 -18 11 -10 25 15 25 14 0 29 8 35 20 6
11 17 20 25 20 8 0 15 5 15 10 0 12 77 90 89 90 5 0 11 9 14 20 3 11 12 20 21
20 9 0 16 4 16 10 0 12 79 90 91 90 5 0 9 7 9 15 0 8 5 15 11 15 10 0 59 45
59 54 0 2 44 48 98 103 112 114 182 196 182 212 0 6 5 11 10 11 6 0 13 7 17
16 3 9 25 35 48 58 23 23 56 62 74 89 17 26 36 47 41 47 6 0 10 7 10 15 0 7 6
18 13 22 13 9 57 68 57 78 0 3 12 18 28 33 30 31 72 88 72 98 0 4 16 26 35 50
19 23 35 45 35 49 0 4 15 25 33 48 37 49 53 74 66 103 5 12 17 24 25 27 9 4
16 15 16 25 0 10 5 23 11 29 12 12 29 40 51 83 7 14 16 28 21 31 11 8 33 45
47 81 6 14 18 29 26 32 8 3 14 17 14 30 0 14 6 29 13 33 13 8 25 29 96 168 20
39 42 76 49 83 6 7 12 22 12 31 0 10 7 24 15 31 8 7 15 20 15 30 0 10 6 23 14
29 8 7 18 25 21 41 3 16 13 34 21 41 8 6 14 18 14 25 0 8 9 31 20 51 11 21 20
43 20 50 0 6 7 25 15 42 8 17 22 45 30 62 8 17 15 36 15 42 0 7 9 29 20 50 11
20 20 46 20 56 0 11 4 22 8 25 5 3 21 45 37 93 15 48 33 100 41 115 8 14 14
38 14 53 0 15 7 43 16 62 l17 34 -59 60 c-36 37 -67 59 -81 59 -12 0 -26 6
-30 13 -10 17 -71 53 -103 61 -17 4 -37 26 -63 71 -21 36 -51 80 -66 98 -28
32 -121 173 -157 236 -32 57 -39 68 -54 86 -8 9 -19 25 -25 35 -10 18 -73 114
-106 162 -11 15 -19 34 -19 41 0 8 -11 22 -25 31 -16 10 -22 22 -18 32 3 9 1
19 -4 23 -12 7 -115 194 -172 311 -23 47 -46 89 -51 94 -6 6 -10 20 -10 32 0
13 -7 29 -15 37 -7 8 -17 27 -21 43 -4 16 -13 35 -21 42 -7 7 -13 24 -13 37 0
12 -7 25 -15 29 -10 4 -15 20 -15 51 0 25 -4 45 -9 45 -9 0 -17 22 -66 170
-15 47 -37 114 -50 150 -43 123 -55 168 -55 197 0 16 -11 62 -24 103 -16 49
-24 102 -25 154 -1 46 -9 94 -18 115 -11 26 -18 94 -24 241 -9 204 -14 281
-17 248z m-135 -2270 c-1 -46 -3 -9 -3 82 0 91 2 128 3 83 2 -46 2 -120 0
-165z m-127 -65 c0 -41 -3 -54 -10 -43 -11 17 -13 61 -4 84 11 28 14 18 14
-41z m-101 -57 c-3 -3 -16 -2 -29 1 -22 6 -22 7 -4 14 18 6 43 -5 33 -15z
m-454 -2016 c3 -5 -3 -10 -14 -10 -12 0 -21 5 -21 10 0 6 6 10 14 10 8 0 18
-4 21 -10z m-80 -145 c0 -11 -7 -21 -16 -23 -18 -3 -33 23 -23 39 10 17 39 5
39 -16z m1952 -1825 c3 -11 10 -20 16 -20 8 0 8 -3 0 -11 -17 -17 -63 -2 -63
20 0 35 38 45 47 11z m58 -50 c3 -5 -1 -10 -10 -10 -9 0 -13 5 -10 10 3 6 8
10 10 10 2 0 7 -4 10 -10z m-125 -10 c0 -5 -12 -10 -26 -10 -14 0 -23 4 -19
10 3 6 15 10 26 10 10 0 19 -4 19 -10z m54 -41 c-3 -5 -10 -7 -15 -3 -5 3 -7
10 -3 15 3 5 10 7 15 3 5 -3 7 -10 3 -15z m-2289 -138 c-2 -4 -5 -27 -6 -50
-4 -52 -19 -66 -19 -17 0 22 -5 36 -12 36 -10 0 -10 2 0 9 7 4 12 12 11 17 -3
18 1 23 16 18 8 -4 13 -9 10 -13z m-45 -126 c0 -8 -7 -15 -16 -15 -14 0 -14 3
-4 15 7 8 14 15 16 15 2 0 4 -7 4 -15z m70 -11 c0 -8 -4 -12 -10 -9 -5 3 -10
10 -10 16 0 5 5 9 10 9 6 0 10 -7 10 -16z m3406 -40 c-3 -8 -10 -14 -15 -14
-15 0 -22 32 -9 47 10 12 13 12 21 -2 5 -9 6 -23 3 -31z m-3936 -124 c0 -5 -9
-10 -20 -10 -11 0 -20 5 -20 10 0 6 9 10 20 10 11 0 20 -4 20 -10z m4048 -22
c14 -17 -17 -55 -41 -50 -13 3 -16 9 -11 25 11 35 34 46 52 25z m-86 -120 c-9
-9 -12 -7 -12 12 0 19 3 21 12 12 9 -9 9 -15 0 -24z m-32 -34 c0 -8 -4 -12
-10 -9 -5 3 -10 10 -10 16 0 5 5 9 10 9 6 0 10 -7 10 -16z m-3277 -1 c-7 -2
-21 -2 -30 0 -10 3 -4 5 12 5 17 0 24 -2 18 -5z m3103 -170 c-11 -11 -19 6
-11 24 8 17 8 17 12 0 3 -10 2 -21 -1 -24z m-1453 -1820 c-7 -2 -19 -2 -25 0
-7 3 -2 5 12 5 14 0 19 -2 13 -5z m-58 -33 c4 -6 -9 -10 -32 -10 -28 0 -34 3
-23 10 20 13 47 13 55 0z m2865 -204 c0 -2 -7 -9 -15 -16 -12 -10 -15 -10 -15
4 0 9 7 16 15 16 8 0 15 -2 15 -4z m-6 -62 c12 -32 6 -54 -14 -54 -21 0 -24
10 -14 48 7 26 19 29 28 6z m-145 -21 c-8 -10 -18 -21 -24 -25 -12 -9 -65 -11
-65 -2 0 15 48 43 74 44 26 0 27 -2 15 -17z m76 -222 c7 -12 -12 -24 -25 -16
-11 7 -4 25 10 25 5 0 11 -4 15 -9z m-2225 -211 c0 -5 -16 -10 -36 -10 -21 0
-33 4 -29 10 3 6 19 10 36 10 16 0 29 -4 29 -10z m37 -6 c-3 -3 -12 -4 -19 -1
-8 3 -5 6 6 6 11 1 17 -2 13 -5z m-264 -31 c-7 -2 -21 -2 -30 0 -10 3 -4 5 12
5 17 0 24 -2 18 -5z m2307 -3 c0 -5 -2 -10 -4 -10 -3 0 -8 5 -11 10 -3 6 -1
10 4 10 6 0 11 -4 11 -10z"/>
<path d="M5247 10813 c-3 -27 -10 -67 -16 -91 -8 -30 -8 -49 -1 -62 22 -42 30
-18 30 90 0 61 -2 110 -4 110 -2 0 -6 -21 -9 -47z"/>
<path d="M3970 8600 c0 -5 5 -10 11 -10 5 0 7 5 4 10 -3 6 -8 10 -11 10 -2 0
-4 -4 -4 -10z"/>
<path d="M4207 8434 c-8 -8 1 -24 14 -24 5 0 9 7 9 15 0 15 -12 20 -23 9z"/>
<path d="M4140 8389 c0 -5 5 -7 10 -4 6 3 10 8 10 11 0 2 -4 4 -10 4 -5 0 -10
-5 -10 -11z"/>
<path d="M4247 8284 c-10 -11 -9 -44 2 -44 15 0 19 13 12 33 -4 10 -10 15 -14
11z"/>
<path d="M22412 8179 c-353 -47 -700 -235 -934 -504 -249 -286 -372 -607 -385
-1008 l-6 -167 29 6 c16 3 182 31 369 63 l340 57 6 95 c23 337 187 612 442
740 130 66 350 89 517 55 107 -23 241 -91 323 -166 109 -100 206 -266 239
-409 8 -35 17 -51 27 -51 9 0 172 25 362 57 l346 57 -22 81 c-69 251 -199 469
-395 665 -218 218 -463 351 -759 411 -113 23 -386 33 -499 18z"/>
<path d="M25377 8175 c-279 -53 -515 -205 -666 -428 -102 -151 -155 -375 -131
-557 6 -47 14 -88 18 -92 4 -3 156 19 338 49 l332 56 -15 36 c-19 45 -12 124
15 177 57 111 187 163 380 151 157 -9 322 -63 492 -160 l75 -42 137 269 c76
148 135 272 133 276 -8 13 -143 90 -212 121 -114 51 -287 107 -401 129 -143
28 -386 35 -495 15z"/>
<path d="M4413 8173 c-28 -11 -13 -33 22 -33 28 0 35 4 35 20 0 20 -26 26 -57
13z"/>
<path d="M4935 8170 c3 -5 8 -10 11 -10 2 0 4 5 4 10 0 6 -5 10 -11 10 -5 0
-7 -4 -4 -10z"/>
<path d="M10400 6630 l0 -1510 345 0 345 0 0 605 0 605 490 0 490 0 0 -605 0
-605 340 0 340 0 0 503 c0 277 3 957 7 1510 l6 1007 -346 0 -347 0 0 -605 0
-605 -490 0 -490 0 0 605 0 605 -345 0 -345 0 0 -1510z"/>
<path d="M12880 8134 c0 -3 250 -379 555 -835 l555 -829 0 -580 0 -579 33 6
c17 2 169 28 337 57 l305 52 3 520 2 520 559 837 558 837 -411 0 -411 0 -315
-484 c-173 -266 -318 -481 -322 -477 -4 3 -146 220 -317 481 l-309 475 -411 3
c-226 1 -411 0 -411 -4z"/>
<path d="M15890 6885 l0 -1256 33 6 c17 3 172 30 342 59 l310 52 3 893 2 894
113 -8 c248 -15 392 -65 544 -188 126 -102 238 -280 285 -452 29 -108 32 -383
5 -489 -54 -213 -170 -393 -332 -514 -52 -39 -56 -44 -30 -38 53 10 984 166
994 166 14 0 49 97 81 225 106 418 37 870 -186 1212 -255 393 -645 629 -1129
683 -49 5 -303 10 -562 10 l-473 0 0 -1255z"/>
<path d="M18600 7116 c0 -923 2 -1026 16 -1026 14 0 588 94 646 106 25 5 27
10 30 60 l3 55 37 -49 36 -49 279 47 c153 26 311 53 351 60 61 10 71 14 61 26
-15 18 -18 16 74 54 188 78 347 222 433 392 102 202 126 479 64 724 -78 304
-316 515 -675 597 -85 19 -128 21 -722 24 l-633 4 0 -1025z m1090 445 c85 -27
167 -84 203 -142 17 -28 34 -78 44 -129 30 -151 -11 -309 -99 -385 -88 -75
-184 -101 -405 -111 l-143 -7 0 403 0 403 168 -6 c130 -4 181 -9 232 -26z"/>
<path d="M26900 7810 c0 -308 1 -330 18 -330 9 1 397 65 862 143 l845 143 3
187 2 187 -865 0 -865 0 0 -330z"/>
<path d="M29030 7987 l0 -154 388 65 c213 35 391 68 395 72 4 4 -16 44 -45 89
l-52 81 -343 0 -343 0 0 -153z"/>
<path d="M4350 8037 c0 -15 4 -27 10 -27 5 0 9 9 7 20 -5 31 -17 36 -17 7z"/>
<path d="M1671 7594 c0 -11 3 -14 6 -6 3 7 2 16 -1 19 -3 4 -6 -2 -5 -13z"/>
<path d="M6757 6243 c-12 -11 -8 -23 8 -23 8 0 15 7 15 15 0 16 -12 20 -23 8z"/>
<path d="M6577 6208 c-8 -30 0 -40 23 -26 30 19 33 48 5 48 -15 0 -25 -7 -28
-22z"/>
<path d="M4715 6160 c3 -5 10 -10 16 -10 5 0 9 5 9 10 0 6 -7 10 -16 10 -8 0
-12 -4 -9 -10z"/>
<path d="M6684 6139 c-16 -17 -16 -22 -4 -30 15 -9 59 -4 73 10 14 14 -5 41
-28 41 -12 0 -30 -9 -41 -21z"/>
<path d="M4768 6053 c6 -2 18 -2 25 0 6 3 1 5 -13 5 -14 0 -19 -2 -12 -5z"/>
<path d="M4688 5983 c7 -3 16 -2 19 1 4 3 -2 6 -13 5 -11 0 -14 -3 -6 -6z"/>
<path d="M7334 5964 c-7 -3 -10 -13 -7 -22 3 -14 12 -17 41 -14 48 6 72 23 45
33 -20 9 -62 10 -79 3z"/>
<path d="M8030 5949 c0 -5 5 -7 10 -4 6 3 10 8 10 11 0 2 -4 4 -10 4 -5 0 -10
-5 -10 -11z"/>
<path d="M4497 5923 c-14 -13 -6 -23 18 -23 16 0 25 6 25 15 0 15 -31 21 -43
8z"/>
<path d="M7886 5922 c-2 -4 -1 -14 5 -22 7 -12 9 -10 9 8 0 23 -5 28 -14 14z"/>
<path d="M4445 5880 c3 -5 10 -10 16 -10 5 0 9 5 9 10 0 6 -7 10 -16 10 -8 0
-12 -4 -9 -10z"/>
<path d="M4555 5880 c4 -6 11 -8 16 -5 14 9 11 15 -7 15 -8 0 -12 -5 -9 -10z"/>
<path d="M4350 5842 c0 -14 13 -22 55 -32 30 -7 58 -11 61 -7 10 10 -6 27 -25
27 -10 0 -24 7 -31 15 -18 22 -60 20 -60 -3z"/>
<path d="M4553 5810 c-4 -15 -14 -20 -39 -20 -39 0 -39 -1 -18 -64 12 -34 21
-46 33 -44 12 2 16 16 18 52 1 36 7 52 22 63 12 8 19 19 16 24 -10 16 -27 10
-32 -11z"/>
<path d="M7960 5815 c0 -8 5 -15 10 -15 6 0 10 7 10 15 0 8 -4 15 -10 15 -5 0
-10 -7 -10 -15z"/>
<path d="M4303 5754 c-7 -18 11 -39 26 -30 17 11 13 46 -4 46 -9 0 -18 -7 -22
-16z"/>
<path d="M4392 5728 c-26 -26 -7 -54 28 -43 26 8 28 55 2 55 -10 0 -23 -5 -30
-12z"/>
<path d="M7846 5681 c-3 -5 1 -11 9 -15 9 -3 15 0 15 9 0 16 -16 20 -24 6z"/>
<path d="M7013 3543 c9 -2 23 -2 30 0 6 3 -1 5 -18 5 -16 0 -22 -2 -12 -5z"/>
<path d="M6334 3509 c-10 -16 17 -29 46 -23 42 9 50 13 50 24 0 14 -87 13 -96
-1z"/>
<path d="M8950 3270 c0 -5 11 -10 25 -10 14 0 25 5 25 10 0 6 -11 10 -25 10
-14 0 -25 -4 -25 -10z"/>
<path d="M7067 2664 c-9 -10 2 -24 19 -24 8 0 14 7 14 15 0 15 -21 21 -33 9z"/>
</g>
</svg>
