<svg xmlns="http://www.w3.org/2000/svg" width="400" height="400"><path fill="#FCD2B1" d="M346.344 343.957H53.38V207.576h60.614l85.868-85.868 85.87 85.868h60.612z"/><path fill="#2A94F4" d="M169.556 283.343h60.613v60.613h-60.613z"/><path fill="#FFBE55" d="m247.289 81.299 8.232-12.351a5.054 5.054 0 0 0 .251-5.184 5.048 5.048 0 0 0-4.453-2.669h-50.511a5.048 5.048 0 0 0-5.051 5.051v30.307a5.048 5.048 0 0 0 5.051 5.051h50.511a5.05 5.05 0 0 0 4.203-7.853l-8.233-12.352z"/><path fill="#0E538C" d="M200 126.759a5.048 5.048 0 0 1-5.052-5.051V56.044c0-2.792 2.26-5.051 5.052-5.051s5.052 2.259 5.052 5.051v65.664a5.049 5.049 0 0 1-5.052 5.051z"/><path fill="#F7F7F7" d="M275.628 240.409c0-6.975-5.652-12.627-12.627-12.627s-12.628 5.653-12.628 12.627c0 .865.089 1.709.254 2.525h-.254v20.205h25.255v-20.205h-.255c.167-.816.255-1.661.255-2.525zM124.234 288.394h25.256v30.307h-25.256zM78.636 288.394h25.256v30.307H78.636zM295.971 288.394h25.256v30.307h-25.256zM250.374 288.394h25.255v30.307h-25.255zM320.95 240.409c0-6.975-5.653-12.627-12.628-12.627-6.974 0-12.628 5.653-12.628 12.627 0 .865.089 1.709.255 2.525h-.255v20.205h25.256v-20.205h-.254c.165-.816.254-1.661.254-2.525zm-217.197 0c0-6.975-5.653-12.627-12.627-12.627-6.975 0-12.628 5.653-12.628 12.627 0 .865.089 1.709.254 2.525h-.254v20.205h25.255v-20.205h-.254c.165-.816.254-1.661.254-2.525zm45.321 0c0-6.975-5.652-12.627-12.627-12.627s-12.628 5.653-12.628 12.627c0 .865.089 1.709.255 2.525h-.255v20.205h25.255v-20.205h-.253c.165-.816.253-1.661.253-2.525z"/><path fill="#0E538C" d="M356.584 349.007H43.416a5.048 5.048 0 0 1-5.051-5.051 5.049 5.049 0 0 1 5.051-5.052h313.168a5.048 5.048 0 0 1 5.051 5.052 5.047 5.047 0 0 1-5.051 5.051z"/><path fill="#2A94F4" d="m171.249 157.598-48.498 48.499a5.036 5.036 0 0 1-3.564 1.479H43.42a5.056 5.056 0 0 1-4.437-2.619 5.083 5.083 0 0 1 .17-5.147l26.863-42.211h105.233zm189.631 47.358a5.057 5.057 0 0 1-4.43 2.619h-75.766a5.035 5.035 0 0 1-3.572-1.479l-48.499-48.499h105.232l26.864 42.211a5.066 5.066 0 0 1 .171 5.148z"/><path fill="#0E538C" d="M285.8 212.559a5.035 5.035 0 0 1-3.571-1.479L200 128.851l-82.228 82.229a5.051 5.051 0 1 1-7.144-7.144l85.8-85.8a5.051 5.051 0 0 1 7.144 0l85.799 85.8a5.05 5.05 0 0 1-3.571 8.623z"/><circle cx="199.862" cy="209.661" r="18.12" fill="#F7F7F7"/></svg>